<svg id="Grupo_1" data-name="Grupo 1" xmlns="http://www.w3.org/2000/svg" width="1924" height="81" viewBox="0 0 1924 81">
  <rect id="Rectángulo_2" data-name="Rectángulo 2" width="1920" height="81" fill="rgba(5,254,2,0.45)"/>
  <circle id="Elipse_1" data-name="Elipse 1" cx="12.5" cy="12.5" r="12.5" transform="translate(1 1)" fill="#b2001d" style="mix-blend-mode: multiply;isolation: isolate"/>
  <circle id="Elipse_96" data-name="Elipse 96" cx="12.5" cy="12.5" r="12.5" transform="translate(417 1)" fill="#b2001d" style="mix-blend-mode: multiply;isolation: isolate"/>
  <circle id="Elipse_191" data-name="Elipse 191" cx="12.5" cy="12.5" r="12.5" transform="translate(1249 1)" fill="#b2001d" style="mix-blend-mode: multiply;isolation: isolate"/>
  <circle id="Elipse_48" data-name="Elipse 48" cx="12.5" cy="12.5" r="12.5" transform="translate(209 1)" fill="#b2001d" style="mix-blend-mode: multiply;isolation: isolate"/>
  <circle id="Elipse_190" data-name="Elipse 190" cx="12.5" cy="12.5" r="12.5" transform="translate(1041 1)" fill="#b2001d" style="mix-blend-mode: multiply;isolation: isolate"/>
  <circle id="Elipse_95" data-name="Elipse 95" cx="12.5" cy="12.5" r="12.5" transform="translate(625 1)" fill="#b2001d" style="mix-blend-mode: multiply;isolation: isolate"/>
  <circle id="Elipse_189" data-name="Elipse 189" cx="12.5" cy="12.5" r="12.5" transform="translate(1457 1)" fill="#b2001d" style="mix-blend-mode: multiply;isolation: isolate"/>
  <circle id="Elipse_203" data-name="Elipse 203" cx="12.5" cy="12.5" r="12.5" transform="translate(1795 1)" fill="#b2001d" style="mix-blend-mode: multiply;isolation: isolate"/>
  <circle id="Elipse_24" data-name="Elipse 24" cx="12.5" cy="12.5" r="12.5" transform="translate(105 1)" fill="#b2001d" style="mix-blend-mode: multiply;isolation: isolate"/>
  <circle id="Elipse_188" data-name="Elipse 188" cx="12.5" cy="12.5" r="12.5" transform="translate(937 1)" fill="#b2001d" style="mix-blend-mode: multiply;isolation: isolate"/>
  <circle id="Elipse_94" data-name="Elipse 94" cx="12.5" cy="12.5" r="12.5" transform="translate(521 1)" fill="#b2001d" style="mix-blend-mode: multiply;isolation: isolate"/>
  <circle id="Elipse_187" data-name="Elipse 187" cx="12.5" cy="12.5" r="12.5" transform="translate(1353 1)" fill="#b2001d" style="mix-blend-mode: multiply;isolation: isolate"/>
  <circle id="Elipse_223" data-name="Elipse 223" cx="12.5" cy="12.5" r="12.5" transform="translate(1691 1)" fill="#b2001d" style="mix-blend-mode: multiply;isolation: isolate"/>
  <circle id="Elipse_47" data-name="Elipse 47" cx="12.5" cy="12.5" r="12.5" transform="translate(313 1)" fill="#b2001d" style="mix-blend-mode: multiply;isolation: isolate"/>
  <circle id="Elipse_186" data-name="Elipse 186" cx="12.5" cy="12.5" r="12.5" transform="translate(1145 1)" fill="#b2001d" style="mix-blend-mode: multiply;isolation: isolate"/>
  <circle id="Elipse_93" data-name="Elipse 93" cx="12.5" cy="12.5" r="12.5" transform="translate(729 1)" fill="#b2001d" style="mix-blend-mode: multiply;isolation: isolate"/>
  <circle id="Elipse_185" data-name="Elipse 185" cx="12.5" cy="12.5" r="12.5" transform="translate(1561 1)" fill="#b2001d" style="mix-blend-mode: multiply;isolation: isolate"/>
  <circle id="Elipse_204" data-name="Elipse 204" cx="12.5" cy="12.5" r="12.5" transform="translate(1899 1)" fill="#b2001d" style="mix-blend-mode: multiply;isolation: isolate"/>
  <circle id="Elipse_12" data-name="Elipse 12" cx="12.5" cy="12.5" r="12.5" transform="translate(53 1)" fill="#b2001d" style="mix-blend-mode: multiply;isolation: isolate"/>
  <circle id="Elipse_184" data-name="Elipse 184" cx="12.5" cy="12.5" r="12.5" transform="translate(885 1)" fill="#b2001d" style="mix-blend-mode: multiply;isolation: isolate"/>
  <circle id="Elipse_92" data-name="Elipse 92" cx="12.5" cy="12.5" r="12.5" transform="translate(469 1)" fill="#b2001d" style="mix-blend-mode: multiply;isolation: isolate"/>
  <circle id="Elipse_183" data-name="Elipse 183" cx="12.5" cy="12.5" r="12.5" transform="translate(1301 1)" fill="#b2001d" style="mix-blend-mode: multiply;isolation: isolate"/>
  <circle id="Elipse_46" data-name="Elipse 46" cx="12.5" cy="12.5" r="12.5" transform="translate(261 1)" fill="#b2001d" style="mix-blend-mode: multiply;isolation: isolate"/>
  <circle id="Elipse_182" data-name="Elipse 182" cx="12.5" cy="12.5" r="12.5" transform="translate(1093 1)" fill="#b2001d" style="mix-blend-mode: multiply;isolation: isolate"/>
  <circle id="Elipse_91" data-name="Elipse 91" cx="12.5" cy="12.5" r="12.5" transform="translate(677 1)" fill="#b2001d" style="mix-blend-mode: multiply;isolation: isolate"/>
  <circle id="Elipse_181" data-name="Elipse 181" cx="12.5" cy="12.5" r="12.5" transform="translate(1509 1)" fill="#b2001d" style="mix-blend-mode: multiply;isolation: isolate"/>
  <circle id="Elipse_205" data-name="Elipse 205" cx="12.5" cy="12.5" r="12.5" transform="translate(1847 1)" fill="#b2001d" style="mix-blend-mode: multiply;isolation: isolate"/>
  <circle id="Elipse_23" data-name="Elipse 23" cx="12.5" cy="12.5" r="12.5" transform="translate(157 1)" fill="#b2001d" style="mix-blend-mode: multiply;isolation: isolate"/>
  <circle id="Elipse_180" data-name="Elipse 180" cx="12.5" cy="12.5" r="12.5" transform="translate(989 1)" fill="#b2001d" style="mix-blend-mode: multiply;isolation: isolate"/>
  <circle id="Elipse_90" data-name="Elipse 90" cx="12.5" cy="12.5" r="12.5" transform="translate(573 1)" fill="#b2001d" style="mix-blend-mode: multiply;isolation: isolate"/>
  <circle id="Elipse_179" data-name="Elipse 179" cx="12.5" cy="12.5" r="12.5" transform="translate(1405 1)" fill="#b2001d" style="mix-blend-mode: multiply;isolation: isolate"/>
  <circle id="Elipse_220" data-name="Elipse 220" cx="12.5" cy="12.5" r="12.5" transform="translate(1743 1)" fill="#b2001d" style="mix-blend-mode: multiply;isolation: isolate"/>
  <circle id="Elipse_45" data-name="Elipse 45" cx="12.5" cy="12.5" r="12.5" transform="translate(365 1)" fill="#b2001d" style="mix-blend-mode: multiply;isolation: isolate"/>
  <circle id="Elipse_178" data-name="Elipse 178" cx="12.5" cy="12.5" r="12.5" transform="translate(1197 1)" fill="#b2001d" style="mix-blend-mode: multiply;isolation: isolate"/>
  <circle id="Elipse_89" data-name="Elipse 89" cx="12.5" cy="12.5" r="12.5" transform="translate(781 1)" fill="#b2001d" style="mix-blend-mode: multiply;isolation: isolate"/>
  <circle id="Elipse_177" data-name="Elipse 177" cx="12.5" cy="12.5" r="12.5" transform="translate(1613 1)" fill="#b2001d" style="mix-blend-mode: multiply;isolation: isolate"/>
  <circle id="Elipse_6" data-name="Elipse 6" cx="12.5" cy="12.5" r="12.5" transform="translate(27 2)" fill="#b2001d" style="mix-blend-mode: multiply;isolation: isolate"/>
  <circle id="Elipse_176" data-name="Elipse 176" cx="12.5" cy="12.5" r="12.5" transform="translate(859 2)" fill="#b2001d" style="mix-blend-mode: multiply;isolation: isolate"/>
  <circle id="Elipse_88" data-name="Elipse 88" cx="12.5" cy="12.5" r="12.5" transform="translate(443 2)" fill="#b2001d" style="mix-blend-mode: multiply;isolation: isolate"/>
  <circle id="Elipse_175" data-name="Elipse 175" cx="12.5" cy="12.5" r="12.5" transform="translate(1275 2)" fill="#b2001d" style="mix-blend-mode: multiply;isolation: isolate"/>
  <circle id="Elipse_44" data-name="Elipse 44" cx="12.5" cy="12.5" r="12.5" transform="translate(235 2)" fill="#b2001d" style="mix-blend-mode: multiply;isolation: isolate"/>
  <circle id="Elipse_174" data-name="Elipse 174" cx="12.5" cy="12.5" r="12.5" transform="translate(1067 2)" fill="#b2001d" style="mix-blend-mode: multiply;isolation: isolate"/>
  <circle id="Elipse_87" data-name="Elipse 87" cx="12.5" cy="12.5" r="12.5" transform="translate(651 2)" fill="#b2001d" style="mix-blend-mode: multiply;isolation: isolate"/>
  <circle id="Elipse_173" data-name="Elipse 173" cx="12.5" cy="12.5" r="12.5" transform="translate(1483 2)" fill="#b2001d" style="mix-blend-mode: multiply;isolation: isolate"/>
  <circle id="Elipse_207" data-name="Elipse 207" cx="12.5" cy="12.5" r="12.5" transform="translate(1821 2)" fill="#b2001d" style="mix-blend-mode: multiply;isolation: isolate"/>
  <circle id="Elipse_22" data-name="Elipse 22" cx="12.5" cy="12.5" r="12.5" transform="translate(131 2)" fill="#b2001d" style="mix-blend-mode: multiply;isolation: isolate"/>
  <circle id="Elipse_172" data-name="Elipse 172" cx="12.5" cy="12.5" r="12.5" transform="translate(963 2)" fill="#b2001d" style="mix-blend-mode: multiply;isolation: isolate"/>
  <circle id="Elipse_86" data-name="Elipse 86" cx="12.5" cy="12.5" r="12.5" transform="translate(547 2)" fill="#b2001d" style="mix-blend-mode: multiply;isolation: isolate"/>
  <circle id="Elipse_171" data-name="Elipse 171" cx="12.5" cy="12.5" r="12.5" transform="translate(1379 2)" fill="#b2001d" style="mix-blend-mode: multiply;isolation: isolate"/>
  <circle id="Elipse_224" data-name="Elipse 224" cx="12.5" cy="12.5" r="12.5" transform="translate(1717 2)" fill="#b2001d" style="mix-blend-mode: multiply;isolation: isolate"/>
  <circle id="Elipse_43" data-name="Elipse 43" cx="12.5" cy="12.5" r="12.5" transform="translate(339 2)" fill="#b2001d" style="mix-blend-mode: multiply;isolation: isolate"/>
  <circle id="Elipse_170" data-name="Elipse 170" cx="12.5" cy="12.5" r="12.5" transform="translate(1171 2)" fill="#b2001d" style="mix-blend-mode: multiply;isolation: isolate"/>
  <circle id="Elipse_85" data-name="Elipse 85" cx="12.5" cy="12.5" r="12.5" transform="translate(755 2)" fill="#b2001d" style="mix-blend-mode: multiply;isolation: isolate"/>
  <circle id="Elipse_169" data-name="Elipse 169" cx="12.5" cy="12.5" r="12.5" transform="translate(1587 2)" fill="#b2001d" style="mix-blend-mode: multiply;isolation: isolate"/>
  <circle id="Elipse_11" data-name="Elipse 11" cx="12.5" cy="12.5" r="12.5" transform="translate(79 2)" fill="#b2001d" style="mix-blend-mode: multiply;isolation: isolate"/>
  <circle id="Elipse_168" data-name="Elipse 168" cx="12.5" cy="12.5" r="12.5" transform="translate(911 2)" fill="#b2001d" style="mix-blend-mode: multiply;isolation: isolate"/>
  <circle id="Elipse_84" data-name="Elipse 84" cx="12.5" cy="12.5" r="12.5" transform="translate(495 2)" fill="#b2001d" style="mix-blend-mode: multiply;isolation: isolate"/>
  <circle id="Elipse_167" data-name="Elipse 167" cx="12.5" cy="12.5" r="12.5" transform="translate(1327 2)" fill="#b2001d" style="mix-blend-mode: multiply;isolation: isolate"/>
  <circle id="Elipse_225" data-name="Elipse 225" cx="12.5" cy="12.5" r="12.5" transform="translate(1665 2)" fill="#b2001d" style="mix-blend-mode: multiply;isolation: isolate"/>
  <circle id="Elipse_42" data-name="Elipse 42" cx="12.5" cy="12.5" r="12.5" transform="translate(287 2)" fill="#b2001d" style="mix-blend-mode: multiply;isolation: isolate"/>
  <circle id="Elipse_166" data-name="Elipse 166" cx="12.5" cy="12.5" r="12.5" transform="translate(1119 2)" fill="#b2001d" style="mix-blend-mode: multiply;isolation: isolate"/>
  <circle id="Elipse_83" data-name="Elipse 83" cx="12.5" cy="12.5" r="12.5" transform="translate(703 2)" fill="#b2001d" style="mix-blend-mode: multiply;isolation: isolate"/>
  <circle id="Elipse_165" data-name="Elipse 165" cx="12.5" cy="12.5" r="12.5" transform="translate(1535 2)" fill="#b2001d" style="mix-blend-mode: multiply;isolation: isolate"/>
  <circle id="Elipse_209" data-name="Elipse 209" cx="12.5" cy="12.5" r="12.5" transform="translate(1873 2)" fill="#b2001d" style="mix-blend-mode: multiply;isolation: isolate"/>
  <circle id="Elipse_21" data-name="Elipse 21" cx="12.5" cy="12.5" r="12.5" transform="translate(183 2)" fill="#b2001d" style="mix-blend-mode: multiply;isolation: isolate"/>
  <circle id="Elipse_164" data-name="Elipse 164" cx="12.5" cy="12.5" r="12.5" transform="translate(1015 2)" fill="#b2001d" style="mix-blend-mode: multiply;isolation: isolate"/>
  <circle id="Elipse_82" data-name="Elipse 82" cx="12.5" cy="12.5" r="12.5" transform="translate(599 2)" fill="#b2001d" style="mix-blend-mode: multiply;isolation: isolate"/>
  <circle id="Elipse_163" data-name="Elipse 163" cx="12.5" cy="12.5" r="12.5" transform="translate(1431 2)" fill="#b2001d" style="mix-blend-mode: multiply;isolation: isolate"/>
  <circle id="Elipse_217" data-name="Elipse 217" cx="12.5" cy="12.5" r="12.5" transform="translate(1769 2)" fill="#b2001d" style="mix-blend-mode: multiply;isolation: isolate"/>
  <circle id="Elipse_41" data-name="Elipse 41" cx="12.5" cy="12.5" r="12.5" transform="translate(391 2)" fill="#b2001d" style="mix-blend-mode: multiply;isolation: isolate"/>
  <circle id="Elipse_162" data-name="Elipse 162" cx="12.5" cy="12.5" r="12.5" transform="translate(1223 2)" fill="#b2001d" style="mix-blend-mode: multiply;isolation: isolate"/>
  <circle id="Elipse_81" data-name="Elipse 81" cx="12.5" cy="12.5" r="12.5" transform="translate(807 2)" fill="#b2001d" style="mix-blend-mode: multiply;isolation: isolate"/>
  <circle id="Elipse_161" data-name="Elipse 161" cx="12.5" cy="12.5" r="12.5" transform="translate(1639 2)" fill="#b2001d" style="mix-blend-mode: multiply;isolation: isolate"/>
  <circle id="Elipse_2" data-name="Elipse 2" cx="12.5" cy="12.5" r="12.5" transform="translate(1 27)" fill="#b2001d" style="mix-blend-mode: multiply;isolation: isolate"/>
  <circle id="Elipse_160" data-name="Elipse 160" cx="12.5" cy="12.5" r="12.5" transform="translate(833 27)" fill="#b2001d" style="mix-blend-mode: multiply;isolation: isolate"/>
  <circle id="Elipse_80" data-name="Elipse 80" cx="12.5" cy="12.5" r="12.5" transform="translate(417 27)" fill="#b2001d" style="mix-blend-mode: multiply;isolation: isolate"/>
  <circle id="Elipse_159" data-name="Elipse 159" cx="12.5" cy="12.5" r="12.5" transform="translate(1249 27)" fill="#b2001d" style="mix-blend-mode: multiply;isolation: isolate"/>
  <circle id="Elipse_40" data-name="Elipse 40" cx="12.5" cy="12.5" r="12.5" transform="translate(209 27)" fill="#b2001d" style="mix-blend-mode: multiply;isolation: isolate"/>
  <circle id="Elipse_158" data-name="Elipse 158" cx="12.5" cy="12.5" r="12.5" transform="translate(1041 27)" fill="#b2001d" style="mix-blend-mode: multiply;isolation: isolate"/>
  <circle id="Elipse_79" data-name="Elipse 79" cx="12.5" cy="12.5" r="12.5" transform="translate(625 27)" fill="#b2001d" style="mix-blend-mode: multiply;isolation: isolate"/>
  <circle id="Elipse_157" data-name="Elipse 157" cx="12.5" cy="12.5" r="12.5" transform="translate(1457 27)" fill="#b2001d" style="mix-blend-mode: multiply;isolation: isolate"/>
  <circle id="Elipse_211" data-name="Elipse 211" cx="12.5" cy="12.5" r="12.5" transform="translate(1795 27)" fill="#b2001d" style="mix-blend-mode: multiply;isolation: isolate"/>
  <circle id="Elipse_20" data-name="Elipse 20" cx="12.5" cy="12.5" r="12.5" transform="translate(105 27)" fill="#b2001d" style="mix-blend-mode: multiply;isolation: isolate"/>
  <circle id="Elipse_156" data-name="Elipse 156" cx="12.5" cy="12.5" r="12.5" transform="translate(937 27)" fill="#b2001d" style="mix-blend-mode: multiply;isolation: isolate"/>
  <circle id="Elipse_78" data-name="Elipse 78" cx="12.5" cy="12.5" r="12.5" transform="translate(521 27)" fill="#b2001d" style="mix-blend-mode: multiply;isolation: isolate"/>
  <circle id="Elipse_155" data-name="Elipse 155" cx="12.5" cy="12.5" r="12.5" transform="translate(1353 27)" fill="#b2001d" style="mix-blend-mode: multiply;isolation: isolate"/>
  <circle id="Elipse_226" data-name="Elipse 226" cx="12.5" cy="12.5" r="12.5" transform="translate(1691 27)" fill="#b2001d" style="mix-blend-mode: multiply;isolation: isolate"/>
  <circle id="Elipse_39" data-name="Elipse 39" cx="12.5" cy="12.5" r="12.5" transform="translate(313 27)" fill="#b2001d" style="mix-blend-mode: multiply;isolation: isolate"/>
  <circle id="Elipse_154" data-name="Elipse 154" cx="12.5" cy="12.5" r="12.5" transform="translate(1145 27)" fill="#b2001d" style="mix-blend-mode: multiply;isolation: isolate"/>
  <circle id="Elipse_77" data-name="Elipse 77" cx="12.5" cy="12.5" r="12.5" transform="translate(729 27)" fill="#b2001d" style="mix-blend-mode: multiply;isolation: isolate"/>
  <circle id="Elipse_153" data-name="Elipse 153" cx="12.5" cy="12.5" r="12.5" transform="translate(1561 27)" fill="#b2001d" style="mix-blend-mode: multiply;isolation: isolate"/>
  <circle id="Elipse_196" data-name="Elipse 196" cx="12.5" cy="12.5" r="12.5" transform="translate(1899 27)" fill="#b2001d" style="mix-blend-mode: multiply;isolation: isolate"/>
  <circle id="Elipse_10" data-name="Elipse 10" cx="12.5" cy="12.5" r="12.5" transform="translate(53 27)" fill="#b2001d" style="mix-blend-mode: multiply;isolation: isolate"/>
  <circle id="Elipse_152" data-name="Elipse 152" cx="12.5" cy="12.5" r="12.5" transform="translate(885 27)" fill="#b2001d" style="mix-blend-mode: multiply;isolation: isolate"/>
  <circle id="Elipse_76" data-name="Elipse 76" cx="12.5" cy="12.5" r="12.5" transform="translate(469 27)" fill="#b2001d" style="mix-blend-mode: multiply;isolation: isolate"/>
  <circle id="Elipse_151" data-name="Elipse 151" cx="12.5" cy="12.5" r="12.5" transform="translate(1301 27)" fill="#b2001d" style="mix-blend-mode: multiply;isolation: isolate"/>
  <circle id="Elipse_38" data-name="Elipse 38" cx="12.5" cy="12.5" r="12.5" transform="translate(261 27)" fill="#b2001d" style="mix-blend-mode: multiply;isolation: isolate"/>
  <circle id="Elipse_150" data-name="Elipse 150" cx="12.5" cy="12.5" r="12.5" transform="translate(1093 27)" fill="#b2001d" style="mix-blend-mode: multiply;isolation: isolate"/>
  <circle id="Elipse_75" data-name="Elipse 75" cx="12.5" cy="12.5" r="12.5" transform="translate(677 27)" fill="#b2001d" style="mix-blend-mode: multiply;isolation: isolate"/>
  <circle id="Elipse_149" data-name="Elipse 149" cx="12.5" cy="12.5" r="12.5" transform="translate(1509 27)" fill="#b2001d" style="mix-blend-mode: multiply;isolation: isolate"/>
  <circle id="Elipse_212" data-name="Elipse 212" cx="12.5" cy="12.5" r="12.5" transform="translate(1847 27)" fill="#b2001d" style="mix-blend-mode: multiply;isolation: isolate"/>
  <circle id="Elipse_19" data-name="Elipse 19" cx="12.5" cy="12.5" r="12.5" transform="translate(157 27)" fill="#b2001d" style="mix-blend-mode: multiply;isolation: isolate"/>
  <circle id="Elipse_148" data-name="Elipse 148" cx="12.5" cy="12.5" r="12.5" transform="translate(989 27)" fill="#b2001d" style="mix-blend-mode: multiply;isolation: isolate"/>
  <circle id="Elipse_74" data-name="Elipse 74" cx="12.5" cy="12.5" r="12.5" transform="translate(573 27)" fill="#b2001d" style="mix-blend-mode: multiply;isolation: isolate"/>
  <circle id="Elipse_147" data-name="Elipse 147" cx="12.5" cy="12.5" r="12.5" transform="translate(1405 27)" fill="#b2001d" style="mix-blend-mode: multiply;isolation: isolate"/>
  <circle id="Elipse_221" data-name="Elipse 221" cx="12.5" cy="12.5" r="12.5" transform="translate(1743 27)" fill="#b2001d" style="mix-blend-mode: multiply;isolation: isolate"/>
  <circle id="Elipse_37" data-name="Elipse 37" cx="12.5" cy="12.5" r="12.5" transform="translate(365 27)" fill="#b2001d" style="mix-blend-mode: multiply;isolation: isolate"/>
  <circle id="Elipse_146" data-name="Elipse 146" cx="12.5" cy="12.5" r="12.5" transform="translate(1197 27)" fill="#b2001d" style="mix-blend-mode: multiply;isolation: isolate"/>
  <circle id="Elipse_73" data-name="Elipse 73" cx="12.5" cy="12.5" r="12.5" transform="translate(781 27)" fill="#b2001d" style="mix-blend-mode: multiply;isolation: isolate"/>
  <circle id="Elipse_145" data-name="Elipse 145" cx="12.5" cy="12.5" r="12.5" transform="translate(1613 27)" fill="#b2001d" style="mix-blend-mode: multiply;isolation: isolate"/>
  <circle id="Elipse_5" data-name="Elipse 5" cx="12.5" cy="12.5" r="12.5" transform="translate(27 28)" fill="#b2001d" style="mix-blend-mode: multiply;isolation: isolate"/>
  <circle id="Elipse_144" data-name="Elipse 144" cx="12.5" cy="12.5" r="12.5" transform="translate(859 28)" fill="#b2001d" style="mix-blend-mode: multiply;isolation: isolate"/>
  <circle id="Elipse_72" data-name="Elipse 72" cx="12.5" cy="12.5" r="12.5" transform="translate(443 28)" fill="#b2001d" style="mix-blend-mode: multiply;isolation: isolate"/>
  <circle id="Elipse_143" data-name="Elipse 143" cx="12.5" cy="12.5" r="12.5" transform="translate(1275 28)" fill="#b2001d" style="mix-blend-mode: multiply;isolation: isolate"/>
  <circle id="Elipse_36" data-name="Elipse 36" cx="12.5" cy="12.5" r="12.5" transform="translate(235 28)" fill="#b2001d" style="mix-blend-mode: multiply;isolation: isolate"/>
  <circle id="Elipse_142" data-name="Elipse 142" cx="12.5" cy="12.5" r="12.5" transform="translate(1067 28)" fill="#b2001d" style="mix-blend-mode: multiply;isolation: isolate"/>
  <circle id="Elipse_71" data-name="Elipse 71" cx="12.5" cy="12.5" r="12.5" transform="translate(651 28)" fill="#b2001d" style="mix-blend-mode: multiply;isolation: isolate"/>
  <circle id="Elipse_141" data-name="Elipse 141" cx="12.5" cy="12.5" r="12.5" transform="translate(1483 28)" fill="#b2001d" style="mix-blend-mode: multiply;isolation: isolate"/>
  <circle id="Elipse_213" data-name="Elipse 213" cx="12.5" cy="12.5" r="12.5" transform="translate(1821 28)" fill="#b2001d" style="mix-blend-mode: multiply;isolation: isolate"/>
  <circle id="Elipse_18" data-name="Elipse 18" cx="12.5" cy="12.5" r="12.5" transform="translate(131 28)" fill="#b2001d" style="mix-blend-mode: multiply;isolation: isolate"/>
  <circle id="Elipse_140" data-name="Elipse 140" cx="12.5" cy="12.5" r="12.5" transform="translate(963 28)" fill="#b2001d" style="mix-blend-mode: multiply;isolation: isolate"/>
  <circle id="Elipse_70" data-name="Elipse 70" cx="12.5" cy="12.5" r="12.5" transform="translate(547 28)" fill="#b2001d" style="mix-blend-mode: multiply;isolation: isolate"/>
  <circle id="Elipse_139" data-name="Elipse 139" cx="12.5" cy="12.5" r="12.5" transform="translate(1379 28)" fill="#b2001d" style="mix-blend-mode: multiply;isolation: isolate"/>
  <circle id="Elipse_227" data-name="Elipse 227" cx="12.5" cy="12.5" r="12.5" transform="translate(1717 28)" fill="#b2001d" style="mix-blend-mode: multiply;isolation: isolate"/>
  <circle id="Elipse_35" data-name="Elipse 35" cx="12.5" cy="12.5" r="12.5" transform="translate(339 28)" fill="#b2001d" style="mix-blend-mode: multiply;isolation: isolate"/>
  <circle id="Elipse_138" data-name="Elipse 138" cx="12.5" cy="12.5" r="12.5" transform="translate(1171 28)" fill="#b2001d" style="mix-blend-mode: multiply;isolation: isolate"/>
  <circle id="Elipse_69" data-name="Elipse 69" cx="12.5" cy="12.5" r="12.5" transform="translate(755 28)" fill="#b2001d" style="mix-blend-mode: multiply;isolation: isolate"/>
  <circle id="Elipse_137" data-name="Elipse 137" cx="12.5" cy="12.5" r="12.5" transform="translate(1587 28)" fill="#b2001d" style="mix-blend-mode: multiply;isolation: isolate"/>
  <circle id="Elipse_9" data-name="Elipse 9" cx="12.5" cy="12.5" r="12.5" transform="translate(79 28)" fill="#b2001d" style="mix-blend-mode: multiply;isolation: isolate"/>
  <circle id="Elipse_136" data-name="Elipse 136" cx="12.5" cy="12.5" r="12.5" transform="translate(911 28)" fill="#b2001d" style="mix-blend-mode: multiply;isolation: isolate"/>
  <circle id="Elipse_68" data-name="Elipse 68" cx="12.5" cy="12.5" r="12.5" transform="translate(495 28)" fill="#b2001d" style="mix-blend-mode: multiply;isolation: isolate"/>
  <circle id="Elipse_135" data-name="Elipse 135" cx="12.5" cy="12.5" r="12.5" transform="translate(1327 28)" fill="#b2001d" style="mix-blend-mode: multiply;isolation: isolate"/>
  <circle id="Elipse_228" data-name="Elipse 228" cx="12.5" cy="12.5" r="12.5" transform="translate(1665 28)" fill="#b2001d" style="mix-blend-mode: multiply;isolation: isolate"/>
  <circle id="Elipse_34" data-name="Elipse 34" cx="12.5" cy="12.5" r="12.5" transform="translate(287 28)" fill="#b2001d" style="mix-blend-mode: multiply;isolation: isolate"/>
  <circle id="Elipse_134" data-name="Elipse 134" cx="12.5" cy="12.5" r="12.5" transform="translate(1119 28)" fill="#b2001d" style="mix-blend-mode: multiply;isolation: isolate"/>
  <circle id="Elipse_67" data-name="Elipse 67" cx="12.5" cy="12.5" r="12.5" transform="translate(703 28)" fill="#b2001d" style="mix-blend-mode: multiply;isolation: isolate"/>
  <circle id="Elipse_133" data-name="Elipse 133" cx="12.5" cy="12.5" r="12.5" transform="translate(1535 28)" fill="#b2001d" style="mix-blend-mode: multiply;isolation: isolate"/>
  <circle id="Elipse_201" data-name="Elipse 201" cx="12.5" cy="12.5" r="12.5" transform="translate(1873 28)" fill="#b2001d" style="mix-blend-mode: multiply;isolation: isolate"/>
  <circle id="Elipse_17" data-name="Elipse 17" cx="12.5" cy="12.5" r="12.5" transform="translate(183 28)" fill="#b2001d" style="mix-blend-mode: multiply;isolation: isolate"/>
  <circle id="Elipse_132" data-name="Elipse 132" cx="12.5" cy="12.5" r="12.5" transform="translate(1015 28)" fill="#b2001d" style="mix-blend-mode: multiply;isolation: isolate"/>
  <circle id="Elipse_66" data-name="Elipse 66" cx="12.5" cy="12.5" r="12.5" transform="translate(599 28)" fill="#b2001d" style="mix-blend-mode: multiply;isolation: isolate"/>
  <circle id="Elipse_131" data-name="Elipse 131" cx="12.5" cy="12.5" r="12.5" transform="translate(1431 28)" fill="#b2001d" style="mix-blend-mode: multiply;isolation: isolate"/>
  <circle id="Elipse_218" data-name="Elipse 218" cx="12.5" cy="12.5" r="12.5" transform="translate(1769 28)" fill="#b2001d" style="mix-blend-mode: multiply;isolation: isolate"/>
  <circle id="Elipse_33" data-name="Elipse 33" cx="12.5" cy="12.5" r="12.5" transform="translate(391 28)" fill="#b2001d" style="mix-blend-mode: multiply;isolation: isolate"/>
  <circle id="Elipse_130" data-name="Elipse 130" cx="12.5" cy="12.5" r="12.5" transform="translate(1223 28)" fill="#b2001d" style="mix-blend-mode: multiply;isolation: isolate"/>
  <circle id="Elipse_65" data-name="Elipse 65" cx="12.5" cy="12.5" r="12.5" transform="translate(807 28)" fill="#b2001d" style="mix-blend-mode: multiply;isolation: isolate"/>
  <circle id="Elipse_129" data-name="Elipse 129" cx="12.5" cy="12.5" r="12.5" transform="translate(1639 28)" fill="#b2001d" style="mix-blend-mode: multiply;isolation: isolate"/>
  <circle id="Elipse_3" data-name="Elipse 3" cx="12.5" cy="12.5" r="12.5" transform="translate(1 53)" fill="#b2001d" style="mix-blend-mode: multiply;isolation: isolate"/>
  <circle id="Elipse_128" data-name="Elipse 128" cx="12.5" cy="12.5" r="12.5" transform="translate(833 53)" fill="#b2001d" style="mix-blend-mode: multiply;isolation: isolate"/>
  <circle id="Elipse_64" data-name="Elipse 64" cx="12.5" cy="12.5" r="12.5" transform="translate(417 53)" fill="#b2001d" style="mix-blend-mode: multiply;isolation: isolate"/>
  <circle id="Elipse_127" data-name="Elipse 127" cx="12.5" cy="12.5" r="12.5" transform="translate(1249 53)" fill="#b2001d" style="mix-blend-mode: multiply;isolation: isolate"/>
  <circle id="Elipse_32" data-name="Elipse 32" cx="12.5" cy="12.5" r="12.5" transform="translate(209 53)" fill="#b2001d" style="mix-blend-mode: multiply;isolation: isolate"/>
  <circle id="Elipse_126" data-name="Elipse 126" cx="12.5" cy="12.5" r="12.5" transform="translate(1041 53)" fill="#b2001d" style="mix-blend-mode: multiply;isolation: isolate"/>
  <circle id="Elipse_63" data-name="Elipse 63" cx="12.5" cy="12.5" r="12.5" transform="translate(625 53)" fill="#b2001d" style="mix-blend-mode: multiply;isolation: isolate"/>
  <circle id="Elipse_125" data-name="Elipse 125" cx="12.5" cy="12.5" r="12.5" transform="translate(1457 53)" fill="#b2001d" style="mix-blend-mode: multiply;isolation: isolate"/>
  <circle id="Elipse_214" data-name="Elipse 214" cx="12.5" cy="12.5" r="12.5" transform="translate(1795 53)" fill="#b2001d" style="mix-blend-mode: multiply;isolation: isolate"/>
  <circle id="Elipse_16" data-name="Elipse 16" cx="12.5" cy="12.5" r="12.5" transform="translate(105 53)" fill="#b2001d" style="mix-blend-mode: multiply;isolation: isolate"/>
  <circle id="Elipse_124" data-name="Elipse 124" cx="12.5" cy="12.5" r="12.5" transform="translate(937 53)" fill="#b2001d" style="mix-blend-mode: multiply;isolation: isolate"/>
  <circle id="Elipse_62" data-name="Elipse 62" cx="12.5" cy="12.5" r="12.5" transform="translate(521 53)" fill="#b2001d" style="mix-blend-mode: multiply;isolation: isolate"/>
  <circle id="Elipse_123" data-name="Elipse 123" cx="12.5" cy="12.5" r="12.5" transform="translate(1353 53)" fill="#b2001d" style="mix-blend-mode: multiply;isolation: isolate"/>
  <circle id="Elipse_229" data-name="Elipse 229" cx="12.5" cy="12.5" r="12.5" transform="translate(1691 53)" fill="#b2001d" style="mix-blend-mode: multiply;isolation: isolate"/>
  <circle id="Elipse_31" data-name="Elipse 31" cx="12.5" cy="12.5" r="12.5" transform="translate(313 53)" fill="#b2001d" style="mix-blend-mode: multiply;isolation: isolate"/>
  <circle id="Elipse_122" data-name="Elipse 122" cx="12.5" cy="12.5" r="12.5" transform="translate(1145 53)" fill="#b2001d" style="mix-blend-mode: multiply;isolation: isolate"/>
  <circle id="Elipse_61" data-name="Elipse 61" cx="12.5" cy="12.5" r="12.5" transform="translate(729 53)" fill="#b2001d" style="mix-blend-mode: multiply;isolation: isolate"/>
  <circle id="Elipse_121" data-name="Elipse 121" cx="12.5" cy="12.5" r="12.5" transform="translate(1561 53)" fill="#b2001d" style="mix-blend-mode: multiply;isolation: isolate"/>
  <circle id="Elipse_200" data-name="Elipse 200" cx="12.5" cy="12.5" r="12.5" transform="translate(1899 53)" fill="#b2001d" style="mix-blend-mode: multiply;isolation: isolate"/>
  <circle id="Elipse_8" data-name="Elipse 8" cx="12.5" cy="12.5" r="12.5" transform="translate(53 53)" fill="#b2001d" style="mix-blend-mode: multiply;isolation: isolate"/>
  <circle id="Elipse_120" data-name="Elipse 120" cx="12.5" cy="12.5" r="12.5" transform="translate(885 53)" fill="#b2001d" style="mix-blend-mode: multiply;isolation: isolate"/>
  <circle id="Elipse_60" data-name="Elipse 60" cx="12.5" cy="12.5" r="12.5" transform="translate(469 53)" fill="#b2001d" style="mix-blend-mode: multiply;isolation: isolate"/>
  <circle id="Elipse_119" data-name="Elipse 119" cx="12.5" cy="12.5" r="12.5" transform="translate(1301 53)" fill="#b2001d" style="mix-blend-mode: multiply;isolation: isolate"/>
  <circle id="Elipse_30" data-name="Elipse 30" cx="12.5" cy="12.5" r="12.5" transform="translate(261 53)" fill="#b2001d" style="mix-blend-mode: multiply;isolation: isolate"/>
  <circle id="Elipse_118" data-name="Elipse 118" cx="12.5" cy="12.5" r="12.5" transform="translate(1093 53)" fill="#b2001d" style="mix-blend-mode: multiply;isolation: isolate"/>
  <circle id="Elipse_59" data-name="Elipse 59" cx="12.5" cy="12.5" r="12.5" transform="translate(677 53)" fill="#b2001d" style="mix-blend-mode: multiply;isolation: isolate"/>
  <circle id="Elipse_117" data-name="Elipse 117" cx="12.5" cy="12.5" r="12.5" transform="translate(1509 53)" fill="#b2001d" style="mix-blend-mode: multiply;isolation: isolate"/>
  <circle id="Elipse_215" data-name="Elipse 215" cx="12.5" cy="12.5" r="12.5" transform="translate(1847 53)" fill="#b2001d" style="mix-blend-mode: multiply;isolation: isolate"/>
  <circle id="Elipse_15" data-name="Elipse 15" cx="12.5" cy="12.5" r="12.5" transform="translate(157 53)" fill="#b2001d" style="mix-blend-mode: multiply;isolation: isolate"/>
  <circle id="Elipse_116" data-name="Elipse 116" cx="12.5" cy="12.5" r="12.5" transform="translate(989 53)" fill="#b2001d" style="mix-blend-mode: multiply;isolation: isolate"/>
  <circle id="Elipse_58" data-name="Elipse 58" cx="12.5" cy="12.5" r="12.5" transform="translate(573 53)" fill="#b2001d" style="mix-blend-mode: multiply;isolation: isolate"/>
  <circle id="Elipse_115" data-name="Elipse 115" cx="12.5" cy="12.5" r="12.5" transform="translate(1405 53)" fill="#b2001d" style="mix-blend-mode: multiply;isolation: isolate"/>
  <circle id="Elipse_222" data-name="Elipse 222" cx="12.5" cy="12.5" r="12.5" transform="translate(1743 53)" fill="#b2001d" style="mix-blend-mode: multiply;isolation: isolate"/>
  <circle id="Elipse_29" data-name="Elipse 29" cx="12.5" cy="12.5" r="12.5" transform="translate(365 53)" fill="#b2001d" style="mix-blend-mode: multiply;isolation: isolate"/>
  <circle id="Elipse_114" data-name="Elipse 114" cx="12.5" cy="12.5" r="12.5" transform="translate(1197 53)" fill="#b2001d" style="mix-blend-mode: multiply;isolation: isolate"/>
  <circle id="Elipse_57" data-name="Elipse 57" cx="12.5" cy="12.5" r="12.5" transform="translate(781 53)" fill="#b2001d" style="mix-blend-mode: multiply;isolation: isolate"/>
  <circle id="Elipse_113" data-name="Elipse 113" cx="12.5" cy="12.5" r="12.5" transform="translate(1613 53)" fill="#b2001d" style="mix-blend-mode: multiply;isolation: isolate"/>
  <circle id="Elipse_4" data-name="Elipse 4" cx="12.5" cy="12.5" r="12.5" transform="translate(27 54)" fill="#b2001d" style="mix-blend-mode: multiply;isolation: isolate"/>
  <circle id="Elipse_112" data-name="Elipse 112" cx="12.5" cy="12.5" r="12.5" transform="translate(859 54)" fill="#b2001d" style="mix-blend-mode: multiply;isolation: isolate"/>
  <circle id="Elipse_56" data-name="Elipse 56" cx="12.5" cy="12.5" r="12.5" transform="translate(443 54)" fill="#b2001d" style="mix-blend-mode: multiply;isolation: isolate"/>
  <circle id="Elipse_111" data-name="Elipse 111" cx="12.5" cy="12.5" r="12.5" transform="translate(1275 54)" fill="#b2001d" style="mix-blend-mode: multiply;isolation: isolate"/>
  <circle id="Elipse_28" data-name="Elipse 28" cx="12.5" cy="12.5" r="12.5" transform="translate(235 54)" fill="#b2001d" style="mix-blend-mode: multiply;isolation: isolate"/>
  <circle id="Elipse_110" data-name="Elipse 110" cx="12.5" cy="12.5" r="12.5" transform="translate(1067 54)" fill="#b2001d" style="mix-blend-mode: multiply;isolation: isolate"/>
  <circle id="Elipse_55" data-name="Elipse 55" cx="12.5" cy="12.5" r="12.5" transform="translate(651 54)" fill="#b2001d" style="mix-blend-mode: multiply;isolation: isolate"/>
  <circle id="Elipse_109" data-name="Elipse 109" cx="12.5" cy="12.5" r="12.5" transform="translate(1483 54)" fill="#b2001d" style="mix-blend-mode: multiply;isolation: isolate"/>
  <circle id="Elipse_216" data-name="Elipse 216" cx="12.5" cy="12.5" r="12.5" transform="translate(1821 54)" fill="#b2001d" style="mix-blend-mode: multiply;isolation: isolate"/>
  <circle id="Elipse_14" data-name="Elipse 14" cx="12.5" cy="12.5" r="12.5" transform="translate(131 54)" fill="#b2001d" style="mix-blend-mode: multiply;isolation: isolate"/>
  <circle id="Elipse_108" data-name="Elipse 108" cx="12.5" cy="12.5" r="12.5" transform="translate(963 54)" fill="#b2001d" style="mix-blend-mode: multiply;isolation: isolate"/>
  <circle id="Elipse_54" data-name="Elipse 54" cx="12.5" cy="12.5" r="12.5" transform="translate(547 54)" fill="#b2001d" style="mix-blend-mode: multiply;isolation: isolate"/>
  <circle id="Elipse_107" data-name="Elipse 107" cx="12.5" cy="12.5" r="12.5" transform="translate(1379 54)" fill="#b2001d" style="mix-blend-mode: multiply;isolation: isolate"/>
  <circle id="Elipse_230" data-name="Elipse 230" cx="12.5" cy="12.5" r="12.5" transform="translate(1717 54)" fill="#b2001d" style="mix-blend-mode: multiply;isolation: isolate"/>
  <circle id="Elipse_27" data-name="Elipse 27" cx="12.5" cy="12.5" r="12.5" transform="translate(339 54)" fill="#b2001d" style="mix-blend-mode: multiply;isolation: isolate"/>
  <circle id="Elipse_106" data-name="Elipse 106" cx="12.5" cy="12.5" r="12.5" transform="translate(1171 54)" fill="#b2001d" style="mix-blend-mode: multiply;isolation: isolate"/>
  <circle id="Elipse_53" data-name="Elipse 53" cx="12.5" cy="12.5" r="12.5" transform="translate(755 54)" fill="#b2001d" style="mix-blend-mode: multiply;isolation: isolate"/>
  <circle id="Elipse_105" data-name="Elipse 105" cx="12.5" cy="12.5" r="12.5" transform="translate(1587 54)" fill="#b2001d" style="mix-blend-mode: multiply;isolation: isolate"/>
  <circle id="Elipse_7" data-name="Elipse 7" cx="12.5" cy="12.5" r="12.5" transform="translate(79 54)" fill="#b2001d" style="mix-blend-mode: multiply;isolation: isolate"/>
  <circle id="Elipse_104" data-name="Elipse 104" cx="12.5" cy="12.5" r="12.5" transform="translate(911 54)" fill="#b2001d" style="mix-blend-mode: multiply;isolation: isolate"/>
  <circle id="Elipse_52" data-name="Elipse 52" cx="12.5" cy="12.5" r="12.5" transform="translate(495 54)" fill="#b2001d" style="mix-blend-mode: multiply;isolation: isolate"/>
  <circle id="Elipse_103" data-name="Elipse 103" cx="12.5" cy="12.5" r="12.5" transform="translate(1327 54)" fill="#b2001d" style="mix-blend-mode: multiply;isolation: isolate"/>
  <circle id="Elipse_231" data-name="Elipse 231" cx="12.5" cy="12.5" r="12.5" transform="translate(1665 54)" fill="#b2001d" style="mix-blend-mode: multiply;isolation: isolate"/>
  <circle id="Elipse_26" data-name="Elipse 26" cx="12.5" cy="12.5" r="12.5" transform="translate(287 54)" fill="#b2001d" style="mix-blend-mode: multiply;isolation: isolate"/>
  <circle id="Elipse_102" data-name="Elipse 102" cx="12.5" cy="12.5" r="12.5" transform="translate(1119 54)" fill="#b2001d" style="mix-blend-mode: multiply;isolation: isolate"/>
  <circle id="Elipse_51" data-name="Elipse 51" cx="12.5" cy="12.5" r="12.5" transform="translate(703 54)" fill="#b2001d" style="mix-blend-mode: multiply;isolation: isolate"/>
  <circle id="Elipse_101" data-name="Elipse 101" cx="12.5" cy="12.5" r="12.5" transform="translate(1535 54)" fill="#b2001d" style="mix-blend-mode: multiply;isolation: isolate"/>
  <circle id="Elipse_202" data-name="Elipse 202" cx="12.5" cy="12.5" r="12.5" transform="translate(1873 54)" fill="#b2001d" style="mix-blend-mode: multiply;isolation: isolate"/>
  <circle id="Elipse_13" data-name="Elipse 13" cx="12.5" cy="12.5" r="12.5" transform="translate(183 54)" fill="#b2001d" style="mix-blend-mode: multiply;isolation: isolate"/>
  <circle id="Elipse_100" data-name="Elipse 100" cx="12.5" cy="12.5" r="12.5" transform="translate(1015 54)" fill="#b2001d" style="mix-blend-mode: multiply;isolation: isolate"/>
  <circle id="Elipse_50" data-name="Elipse 50" cx="12.5" cy="12.5" r="12.5" transform="translate(599 54)" fill="#b2001d" style="mix-blend-mode: multiply;isolation: isolate"/>
  <circle id="Elipse_99" data-name="Elipse 99" cx="12.5" cy="12.5" r="12.5" transform="translate(1431 54)" fill="#b2001d" style="mix-blend-mode: multiply;isolation: isolate"/>
  <circle id="Elipse_219" data-name="Elipse 219" cx="12.5" cy="12.5" r="12.5" transform="translate(1769 54)" fill="#b2001d" style="mix-blend-mode: multiply;isolation: isolate"/>
  <circle id="Elipse_25" data-name="Elipse 25" cx="12.5" cy="12.5" r="12.5" transform="translate(391 54)" fill="#b2001d" style="mix-blend-mode: multiply;isolation: isolate"/>
  <circle id="Elipse_98" data-name="Elipse 98" cx="12.5" cy="12.5" r="12.5" transform="translate(1223 54)" fill="#b2001d" style="mix-blend-mode: multiply;isolation: isolate"/>
  <circle id="Elipse_49" data-name="Elipse 49" cx="12.5" cy="12.5" r="12.5" transform="translate(807 54)" fill="#b2001d" style="mix-blend-mode: multiply;isolation: isolate"/>
  <circle id="Elipse_97" data-name="Elipse 97" cx="12.5" cy="12.5" r="12.5" transform="translate(1639 54)" fill="#b2001d" style="mix-blend-mode: multiply;isolation: isolate"/>
  <circle id="Elipse_192" data-name="Elipse 192" cx="12.5" cy="12.5" r="12.5" transform="translate(833 2)" fill="#b2001d" style="mix-blend-mode: multiply;isolation: isolate"/>
</svg>
